<?xml version="1.0" encoding="UTF-8"?>
<svg version="1.1" viewBox="0 0 100 100" xmlns="http://www.w3.org/2000/svg">
    <title>logo_emlyon_end</title>
    <g fill="none" fill-rule="evenodd">
        <polygon points="7.7868e-14 100 100 100 100 -9.7335e-15 7.7868e-14 -9.7335e-15" fill="#E2001A" />
        <g transform="translate(8.2192 31.716)" fill="#fff">
            <path
                d="m10.104 6.1831h-6.5495c0.2629 1.2494 1.106 1.9021 2.2994 1.9021 0.89667 0 1.5469-0.2901 2.2829-0.99639l1.528 1.3953c-0.87771 1.1225-2.1428 1.8106-3.8455 1.8106-2.8276 0-4.9177-2.0464-4.9177-5.0174v-0.036262c0-2.7716 1.9145-5.0537 4.6539-5.0537 3.1433 0 4.5839 2.5178 4.5839 5.2704v0.036262c0 0.27279-0.018131 0.43597-0.035438 0.68899m-4.5485-3.7861c-1.106 0-1.8255 0.81508-2.0373 2.0653h4.0227c-0.15906-1.2313-0.86041-2.0653-1.9854-2.0653" />
            <path
                d="m23.815 10.077v-5.4163c0-1.303-0.56207-1.973-1.5626-1.973s-1.6153 0.67003-1.6153 1.973v5.4163h-2.6694v-5.4163c0-1.303-0.56124-1.973-1.5626-1.973-1.0022 0-1.6161 0.67003-1.6161 1.973v5.4163h-2.6686v-9.7084h2.6686v1.3763c0.61399-0.81508 1.4225-1.5576 2.7741-1.5576 1.2296 0 2.1601 0.56207 2.6521 1.5395 0.82579-0.99639 1.809-1.5395 3.0905-1.5395 1.9854 0 3.1787 1.2321 3.1787 3.5677v6.322h-2.6694z" />
            <polygon points="1.4818 26.182 4.1496 26.182 4.1496 12.96 1.4818 12.96" />
            <path
                d="m11.999 26.418c-0.71948 1.9738-1.4934 2.7164-3.0905 2.7164-0.9659 0-1.6862-0.25384-2.3711-0.67003l0.89585-1.992c0.35109 0.21675 0.79036 0.37993 1.1414 0.37993 0.45575 0 0.70135-0.14423 0.93046-0.63377l-3.688-9.7447h2.8276l2.142 6.6105 2.0546-6.6105h2.7757l-3.618 9.9441z" />
            <path
                d="m21.284 26.399c-2.9142 0-5.0743-2.2285-5.0743-5.0174v-0.036262c0-2.7889 2.1766-5.0537 5.1097-5.0537 2.915 0 5.0751 2.2285 5.0751 5.0174v0.036262c0 2.7906-2.1766 5.0537-5.1105 5.0537zm2.4774-5.0537c0-1.4299-1.0022-2.6809-2.4774-2.6809-1.528 0-2.4411 1.2148-2.4411 2.6447v0.036262c0 1.4315 1.0005 2.6809 2.4766 2.6809 1.5271 0 2.4419-1.2131 2.4419-2.6447v-0.036262z" />
            <path
                d="m34.275 26.182v-5.4163c0-1.3038-0.59751-1.973-1.6161-1.973-1.017 0-1.6672 0.66921-1.6672 1.973v5.4163h-2.6702v-9.7084h2.6702v1.3763c0.61399-0.81508 1.4052-1.5576 2.7559-1.5576 2.0208 0 3.1969 1.3763 3.1969 3.604v6.2858h-2.6694z" />
            <path
                d="m6.5043 42.486c-1.6862 0-2.7749-0.942-3.4771-1.992v1.7925h-1.3524v-13.223h1.3524v5.7418c0.73761-1.1233 1.809-2.0826 3.4771-2.0826 2.1774 0 4.3375 1.7752 4.3375 4.8723 0 3.079-2.142 4.8905-4.3375 4.8905m-0.2456-8.5134c-1.6862 0-3.2842 1.4488-3.2842 3.6229 0 2.1922 1.598 3.6411 3.2842 3.6411 1.7563 0 3.196-1.3409 3.196-3.6238 0-2.2277-1.4752-3.6402-3.196-3.6402" />
            <path
                d="m19.776 32.922h1.3351v9.3639h-1.3351v-1.6293c-0.61481 1.0137-1.5453 1.8288-3.1087 1.8288-2.1955 0-3.4771-1.5214-3.4771-3.7499v-5.8135h1.3516v5.4699c0 1.7389 0.91398 2.826 2.512 2.826 1.5461 0 2.7222-1.1769 2.7222-2.9348v-5.3611z" />
            <path
                d="m27.147 42.468c-1.2997 0-2.7395-0.52498-3.7589-1.3763l0.68569-0.99639c0.98321 0.76069 2.0719 1.1958 3.1433 1.1958 1.0887 0 1.8791-0.57937 1.8791-1.4851v-0.037086c0-0.942-1.0722-1.303-2.2656-1.6483-1.4225-0.41619-3.0032-0.92304-3.0032-2.643v-0.037087c0-1.612 1.2997-2.6809 3.0914-2.6809 1.1052 0 2.3356 0.39889 3.2661 1.0327l-0.61564 1.05c-0.84145-0.56042-1.8082-0.90574-2.6859-0.90574-1.0714 0-1.7563 0.5802-1.7563 1.359v0.036262c0 0.88678 1.1241 1.2321 2.3356 1.612 1.4052 0.43432 2.915 0.99639 2.915 2.6809v0.036262c0 1.7744-1.4225 2.807-3.2306 2.807" />
            <path d="m32.921 30.875h1.5453v-1.5395h-1.5453v1.5395zm0.088184 11.411h1.3516v-9.3639h-1.3516v9.3639z" />
            <path
                d="m38.854 42.287h-1.3516v-9.3639h1.3516v1.6293c0.59833-1.0137 1.5453-1.8288 3.1087-1.8288 2.1963 0 3.4771 1.5214 3.4771 3.7499v5.8135h-1.3508v-5.4699c0-1.7389-0.9148-2.8252-2.512-2.8252-1.5634 0-2.723 1.1761-2.723 2.9331v5.3619z" />
            <path
                d="m52.319 41.29c1.2478 0 2.1255-0.5258 2.8631-1.3219l0.8431 0.77882c-0.91398 1.05-2.02 1.7563-3.7416 1.7563-2.493 0-4.5295-1.9738-4.5295-4.8905 0-2.7164 1.8436-4.8905 4.354-4.8905 2.6875 0 4.2328 2.2095 4.2328 4.963 0 0.12692 0 0.27114-0.017307 0.43432h-7.2006c0.19285 2.029 1.5988 3.1705 3.196 3.1705zm2.6521-4.2031c-0.1401-1.7019-1.0887-3.1878-2.8977-3.1878-1.5807 0-2.7749 1.359-2.9504 3.1878h5.8481z" />
            <path
                d="m61.711 42.468c-1.2997 0-2.7395-0.52498-3.7589-1.3763l0.68569-0.99639c0.98321 0.76069 2.0719 1.1958 3.1441 1.1958 1.0887 0 1.8791-0.57937 1.8791-1.4851v-0.037086c0-0.942-1.073-1.303-2.2656-1.6483-1.4233-0.41619-3.0032-0.92304-3.0032-2.643v-0.037087c0-1.612 1.2997-2.6809 3.0905-2.6809 1.1052 0 2.3356 0.39889 3.2669 1.0327l-0.61646 1.05c-0.84145-0.56042-1.8074-0.90574-2.6851-0.90574-1.0722 0-1.7563 0.5802-1.7563 1.359v0.036262c0 0.88678 1.1241 1.2321 2.3348 1.612 1.406 0.43432 2.9158 0.99639 2.9158 2.6809v0.036262c0 1.7744-1.4241 2.807-3.2315 2.807" />
            <path
                d="m70.453 42.468c-1.2997 0-2.7403-0.52498-3.7581-1.3763l0.68404-0.99639c0.98403 0.76069 2.0727 1.1958 3.1433 1.1958 1.0887 0 1.8791-0.57937 1.8791-1.4851v-0.037086c0-0.942-1.0706-1.303-2.2648-1.6483-1.4225-0.41619-3.0032-0.92304-3.0032-2.643v-0.037087c0-1.612 1.2989-2.6809 3.0914-2.6809 1.106 0 2.3348 0.39889 3.2653 1.0327l-0.61399 1.05c-0.8431-0.56042-1.809-0.90574-2.6867-0.90574-1.0714 0-1.7571 0.5802-1.7571 1.359v0.036262c0 0.88678 1.1241 1.2321 2.3365 1.612 1.4043 0.43432 2.915 0.99639 2.915 2.6809v0.036262c0 1.7744-1.4225 2.807-3.2306 2.807" />
            <path
                d="m4.6781 58.573c-1.2997 0-2.7395-0.52498-3.7589-1.3763l0.68569-0.99639c0.98321 0.76069 2.0719 1.1958 3.1433 1.1958 1.0887 0 1.8791-0.57937 1.8791-1.4851v-0.037086c0-0.942-1.0722-1.303-2.2656-1.6483-1.4225-0.41619-3.0032-0.92304-3.0032-2.6447v-0.035438c0-1.612 1.2997-2.6809 3.0914-2.6809 1.1052 0 2.3356 0.39806 3.2661 1.0327l-0.61481 1.05c-0.84228-0.56042-1.8082-0.90574-2.6859-0.90574-1.0714 0-1.7571 0.5802-1.7571 1.359v0.036262c0 0.88678 1.1241 1.2321 2.3356 1.612 1.4052 0.43432 2.915 0.99639 2.915 2.6809v0.036262c0 1.7744-1.4233 2.807-3.2306 2.807" />
            <path
                d="m14.508 58.61c-2.6513 0-4.6539-2.2285-4.6539-4.8715 0-2.6636 2.0027-4.9094 4.6539-4.9094 1.7216 0 2.7922 0.74255 3.6353 1.6664l-0.89585 0.97826c-0.71948-0.77882-1.528-1.4126-2.7568-1.4126-1.8444 0-3.2488 1.612-3.2488 3.6411 0 2.0464 1.4398 3.6584 3.3361 3.6584 1.1596 0 2.0546-0.59751 2.7749-1.3953l0.86041 0.83321c-0.91315 1.0508-2.0018 1.8115-3.7054 1.8115" />
            <path
                d="m21.792 58.393h-1.3516v-13.223h1.3516v5.488c0.59751-1.0137 1.5453-1.8288 3.1079-1.8288 2.1963 0 3.4779 1.5214 3.4779 3.7499v5.8135h-1.3524v-5.4699c0-1.7389-0.91315-2.826-2.5112-2.826-1.5626 0-2.7222 1.1777-2.7222 2.9348v5.3611z" />
            <path
                d="m35.398 58.61c-2.7222 0-4.7067-2.2095-4.7067-4.8715 0-2.6636 2.0027-4.9094 4.7413-4.9094 2.723 0 4.724 2.2095 4.724 4.8732 0 2.662-2.0192 4.9078-4.7586 4.9078m0-8.5489c-1.9672 0-3.3188 1.612-3.3188 3.6411 0 2.0282 1.4406 3.6584 3.3534 3.6584 1.9681 0 3.3378-1.612 3.3378-3.6221 0-2.048-1.4587-3.6773-3.3724-3.6773" />
            <path
                d="m46.738 58.61c-2.7213 0-4.7067-2.2095-4.7067-4.8715 0-2.6636 2.0027-4.9094 4.7421-4.9094 2.7222 0 4.724 2.2095 4.724 4.8732 0 2.662-2.02 4.9078-4.7594 4.9078m0-8.5489c-1.9664 0-3.3188 1.612-3.3188 3.6411 0 2.0282 1.4406 3.6584 3.3543 3.6584 1.9672 0 3.337-1.612 3.337-3.6221 0-2.048-1.4579-3.6773-3.3724-3.6773" />
            <polygon points="54.056 58.393 55.408 58.393 55.408 45.17 54.056 45.17" />
        </g>
    </g>
</svg>
